<svg viewBox="0 0 200 200">
  <g stroke="#000" fill="#000">
    <path
      fill="none"
      stroke-width="3"
      d="M61.064 32.93c-.185.002-.37.007-.554.011v24.083l-.02.002V57.077a.094.094 0 010 .053l.003.004c.001.002 0 .004.002.006.46-.025.92-.042 1.383-.04 11.759-.224 22.864 8.564 25.35 20.06.5 1.974.732 3.99.718 6l.13-.008c.156-7.583 1.606-15.202 5.041-22.03a47.246 47.246 0 016.877-10.58c-5.79-6.811-13.352-12.114-21.894-14.927a50.016 50.016 0 00-16.157-2.683 53.786 53.786 0 00-.88-.001z"
    />
    <path
      fill-rule="evenodd"
      d="M138.11 32.932c-18.762-.204-36.993 11.218-44.993 28.19-4.142 8.233-5.405 17.615-4.984 26.699v79.347c12.679.291 24.095-10.983 23.957-23.672.092-5.946.02-11.894.043-17.841 15.952 9.94 37.509 9.63 53.168-.763 15.837-10.02 24.923-29.487 22.435-48.062-2.087-18.646-15.649-35.346-33.47-41.215a50.016 50.016 0 00-16.156-2.683zm-.066 24.168c11.76-.223 22.865 8.564 25.351 20.06 2.887 11.4-3.148 24.212-13.78 29.243-10.448 5.4-24.294 2.43-31.607-6.781-7.633-8.95-7.884-23.109-.573-32.322 4.812-6.36 12.633-10.231 20.61-10.2z"
    />
    <path
      d="M60.51 32.84c-27.08.73-48.654 22.892-48.654 49.982 0 .68.014 1.358.042 2.036h.032v48.02c9.531.1 18.714-6.1 22.187-14.976 1.741-4.045 1.874-8.454 1.814-12.728L35.83 82.99h-.1c0-.05.1.05.1 0 0-13.846 10.851-25.263 24.68-25.966z"
      style="font-variation-settings:normal"
    />
  </g>
</svg>